<?xml version="1.0" standalone="no"?><!DOCTYPE svg PUBLIC "-//W3C//DTD SVG 1.1//EN" "http://www.w3.org/Graphics/SVG/1.1/DTD/svg11.dtd"><svg t="1517317016395" class="icon" style="" viewBox="0 0 1024 1024" version="1.1" xmlns="http://www.w3.org/2000/svg" p-id="13349" xmlns:xlink="http://www.w3.org/1999/xlink" width="200" height="200"><defs><style type="text/css"></style></defs><path d="M470.848 548.576l0 219.424q0 45.728-32 77.728t-77.728 32l-219.424 0q-45.728 0-77.728-32t-32-77.728l0-402.272q0-59.424 23.136-113.44t62.56-93.44 93.44-62.56 113.44-23.136l36.576 0q14.848 0 25.728 10.848t10.848 25.728l0 73.152q0 14.848-10.848 25.728t-25.728 10.848l-36.576 0q-60.576 0-103.424 42.848t-42.848 103.424l0 18.272q0 22.848 16 38.848t38.848 16l128 0q45.728 0 77.728 32t32 77.728zM982.848 548.576l0 219.424q0 45.728-32 77.728t-77.728 32l-219.424 0q-45.728 0-77.728-32t-32-77.728l0-402.272q0-59.424 23.136-113.44t62.56-93.44 93.44-62.56 113.44-23.136l36.576 0q14.848 0 25.728 10.848t10.848 25.728l0 73.152q0 14.848-10.848 25.728t-25.728 10.848l-36.576 0q-60.576 0-103.424 42.848t-42.848 103.424l0 18.272q0 22.848 16 38.848t38.848 16l128 0q45.728 0 77.728 32t32 77.728z" p-id="13350" fill="#bfbfbf"></path></svg>