<?xml version="1.0" standalone="no"?><!DOCTYPE svg PUBLIC "-//W3C//DTD SVG 1.1//EN" "http://www.w3.org/Graphics/SVG/1.1/DTD/svg11.dtd"><svg t="1517317030218" class="icon" style="" viewBox="0 0 1024 1024" version="1.1" xmlns="http://www.w3.org/2000/svg" p-id="13526" xmlns:xlink="http://www.w3.org/1999/xlink" width="200" height="200"><defs><style type="text/css"></style></defs><path d="M475.428571 182.857143v402.285714c0 161.133714-131.437714 292.571429-292.571428 292.571429H146.285714c-20.004571 0-36.571429-16.566857-36.571428-36.571429v-73.142857c0-20.004571 16.566857-36.571429 36.571428-36.571429h36.571429c80.566857 0 146.285714-65.718857 146.285714-146.285714v-18.285714A54.857143 54.857143 0 0 0 274.285714 512H146.285714c-60.562286 0-109.714286-49.152-109.714285-109.714286V182.857143c0-60.562286 49.152-109.714286 109.714285-109.714286h219.428572c60.562286 0 109.714286 49.152 109.714285 109.714286z m512 0v402.285714c0 161.133714-131.437714 292.571429-292.571428 292.571429h-36.571429c-20.004571 0-36.571429-16.566857-36.571428-36.571429v-73.142857c0-20.004571 16.566857-36.571429 36.571428-36.571429h36.571429c80.566857 0 146.285714-65.718857 146.285714-146.285714v-18.285714a54.857143 54.857143 0 0 0-54.857143-54.857143H658.285714c-60.562286 0-109.714286-49.152-109.714285-109.714286V182.857143c0-60.562286 49.152-109.714286 109.714285-109.714286h219.428572c60.562286 0 109.714286 49.152 109.714285 109.714286z" fill="#bfbfbf" p-id="13527"></path></svg>