<?xml version="1.0" standalone="no"?><!DOCTYPE svg PUBLIC "-//W3C//DTD SVG 1.1//EN" "http://www.w3.org/Graphics/SVG/1.1/DTD/svg11.dtd"><svg t="1519450589967" class="icon" style="" viewBox="0 0 1024 1024" version="1.1" xmlns="http://www.w3.org/2000/svg" p-id="37695" xmlns:xlink="http://www.w3.org/1999/xlink" width="200" height="200"><defs><style type="text/css"></style></defs><path d="M883.323539 875.027084c23.223934 0 41.978067 18.803251 41.978067 41.978067 0 23.175839-18.754133 41.97909-41.978067 41.97909L140.676461 958.984241c-23.176862 0-41.97909-18.803251-41.97909-41.97909 0-23.174815 18.803251-41.978067 41.97909-41.978067L883.323539 875.027084z" p-id="37696" fill="#1296db"></path><path d="M415.094438 743.309156c-41.105187 0-79.147618-12.997012-110.48637-34.837436L172.839998 840.189647l-48.440246 0 0-48.440246 131.767046-131.767046 0 0L705.7881 210.362079 229.152539 602.602507c-4.859681-16.861016-7.871271-34.618449-7.871271-53.105498 0-106.987686 522.841929-484.482273 629.828592-484.482273 48.490388 0 48.490388 0 48.490388 48.464805C899.599224 220.468251 522.10566 743.309156 415.094438 743.309156z" p-id="37697" fill="#1296db"></path></svg>