<?xml version="1.0" standalone="no"?><!DOCTYPE svg PUBLIC "-//W3C//DTD SVG 1.1//EN" "http://www.w3.org/Graphics/SVG/1.1/DTD/svg11.dtd"><svg t="1519364551940" class="icon" style="" viewBox="0 0 1024 1024" version="1.1" xmlns="http://www.w3.org/2000/svg" p-id="23713" xmlns:xlink="http://www.w3.org/1999/xlink" width="200" height="200"><defs><style type="text/css"></style></defs><path d="M512.064 1022.976c-249.344 0-452.096-202.816-452.096-452.096 0-197.376 126.144-370.432 313.92-430.656 13.312-4.16 27.328 3.072 31.552 16.256 4.288 13.248-3.008 27.328-16.192 31.552-166.912 53.504-279.04 207.36-279.04 382.848 0 221.568 180.288 401.92 401.92 401.92 221.568 0 401.792-180.288 401.792-401.92 0-178.752-119.808-337.664-291.392-386.624-13.376-3.776-21.12-17.664-17.28-31.04 3.776-13.312 17.536-21.248 30.976-17.28 193.088 55.04 327.808 233.856 327.808 434.88C964.032 820.16 761.344 1022.976 512.064 1022.976" p-id="23714" fill="#1296db"></path><path d="M503.936 703.104c-13.824 0-25.152-11.2-25.152-25.152L478.784 25.152C478.784 11.264 490.048 0 503.936 0 517.76 0 529.024 11.264 529.024 25.152l0 652.864C529.024 691.968 517.76 703.104 503.936 703.104" p-id="23715" fill="#1296db"></path></svg>