<?xml version="1.0" standalone="no"?><!DOCTYPE svg PUBLIC "-//W3C//DTD SVG 1.1//EN" "http://www.w3.org/Graphics/SVG/1.1/DTD/svg11.dtd"><svg t="1521085210355" class="icon" style="" viewBox="0 0 1024 1024" version="1.1" xmlns="http://www.w3.org/2000/svg" p-id="3509" xmlns:xlink="http://www.w3.org/1999/xlink" width="200" height="200"><defs><style type="text/css"></style></defs><path d="M930.986667 657.92 824.32 842.666667C803.413333 879.36 764.586667 898.56 725.333333 896L640 896 640 981.333333 533.333333 789.333333 640 597.333333 640 682.666667 760.32 682.666667 665.6 518.4 850.346667 411.733333 927.146667 544.853333C949.333333 577.706667 952.32 621.653333 930.986667 657.92M392.96 130.56 606.293333 130.56C648.106667 130.56 684.373333 154.88 701.866667 189.866667L744.533333 264.106667 818.346667 221.44 705.706667 409.6 485.973333 413.44 559.786667 370.773333 499.626667 266.24 405.333333 430.506667 220.16 323.84 296.96 190.72C314.453333 155.306667 350.72 130.56 392.96 130.56M215.466667 843.093333 108.8 658.346667C87.893333 622.08 90.88 578.56 112.64 545.706667L155.306667 471.893333 81.493333 429.226667 300.8 432.64 413.866667 621.226667 340.053333 578.56 279.893333 682.666667 469.333333 682.666667 469.333333 896 315.733333 896C276.053333 898.986667 236.8 879.36 215.466667 843.093333Z" p-id="3510" fill="#e6e6e6"></path></svg>