<?xml version="1.0" standalone="no"?><!DOCTYPE svg PUBLIC "-//W3C//DTD SVG 1.1//EN" "http://www.w3.org/Graphics/SVG/1.1/DTD/svg11.dtd"><svg t="1520421816961" class="icon" style="" viewBox="0 0 1024 1024" version="1.1" xmlns="http://www.w3.org/2000/svg" p-id="2601" xmlns:xlink="http://www.w3.org/1999/xlink" width="200" height="200"><defs><style type="text/css"></style></defs><path d="M51.849491 269.253327S145.095567 125.320295 292.484528 48.201886c147.580956-77.246407 329.20921-55.038865 448.310753 19.839591 119.229541 74.878456 159.356713 138.045153 159.356713 138.045152l102.653883-58.558792s21.183563-10.431785 21.183563 14.07971v367.352423s0 32.767324-24.895486 21.055566c-20.671574-9.855797-246.202922-138.109151-317.177459-178.556317-38.911197-17.407641-4.735902-31.487351-4.735902-31.487351l99.069957-56.70283s-56.510834-70.846539-139.197129-108.285767c-88.510174-46.07905-171.324466-51.646935-272.890372-13.183728-66.174635 24.959485-144.125027 88.958165-200.187871 183.420217L51.785492 269.253327z m920.301018 485.493986s-93.310075 143.869033-240.699035 221.051441c-147.452959 77.246407-329.20921 55.038865-448.246755-19.839591-119.229541-74.814457-159.356713-138.109151-159.356713-138.109151l-102.717882 58.558792s-21.119564 10.431785-21.119564-13.951712V494.912672s0-32.639327 24.895486-21.055565c20.671574 9.855797 246.138923 138.109151 317.177459 178.556317 38.911197 17.407641 4.671904 31.551349 4.671903 31.551349l-99.133955 56.702831s56.638832 70.718541 139.325126 108.157769c88.446176 46.271046 171.324466 51.710933 272.762375 13.311725 66.238634-24.959485 144.125027-88.958165 200.315868-183.548214l112.125687 76.094431z" p-id="2602" fill="#bfbfbf"></path></svg>