<?xml version="1.0" standalone="no"?><!DOCTYPE svg PUBLIC "-//W3C//DTD SVG 1.1//EN" "http://www.w3.org/Graphics/SVG/1.1/DTD/svg11.dtd"><svg t="1530238900548" class="icon" style="" viewBox="0 0 1024 1024" version="1.1" xmlns="http://www.w3.org/2000/svg" p-id="15118" xmlns:xlink="http://www.w3.org/1999/xlink" width="200" height="200"><defs><style type="text/css"></style></defs><path d="M537.6 143.36C332.8 143.36 168.96 307.2 168.96 512S335.36 880.64 537.6 880.64 906.24 716.8 906.24 512 742.4 143.36 537.6 143.36z m140.8 465.92c5.12 5.12 5.12 15.36 0 20.48l-20.48 20.48c-5.12 5.12-15.36 5.12-20.48 0L537.6 555.52l-97.28 97.28c-5.12 5.12-15.36 5.12-20.48 0l-20.48-20.48c-5.12-5.12-5.12-15.36 0-20.48l97.28-97.28-97.28-97.28c-5.12-5.12-5.12-15.36 0-20.48l20.48-20.48c5.12-5.12 15.36-5.12 20.48 0l97.28 97.28 97.28-97.28c5.12-5.12 15.36-5.12 20.48 0l20.48 20.48c5.12 5.12 5.12 15.36 0 20.48L581.12 512l97.28 97.28z" fill="#cdcdcd" p-id="15119"></path></svg>