<?xml version="1.0" standalone="no"?><!DOCTYPE svg PUBLIC "-//W3C//DTD SVG 1.1//EN" "http://www.w3.org/Graphics/SVG/1.1/DTD/svg11.dtd"><svg t="1517280315389" class="icon" style="" viewBox="0 0 1024 1024" version="1.1" xmlns="http://www.w3.org/2000/svg" p-id="4571" xmlns:xlink="http://www.w3.org/1999/xlink" width="200" height="200"><defs><style type="text/css"></style></defs><path d="M511.9 511.882m-448.487 0a448.487 448.487 0 1 0 896.974 0 448.487 448.487 0 1 0-896.974 0Z" fill="#4F5D73" p-id="4572"></path><path d="M287.656 357.715v439.863c0 14.809 9.119 28.188 23.06 33.869a38.248 38.248 0 0 0 14.314 2.786c9.717 0 19.285-3.739 26.423-10.74L511.9 666.132l160.446 157.361c7.138 7.001 16.706 10.74 26.423 10.74 4.821 0 9.68-0.916 14.277-2.786 13.978-5.682 23.097-19.061 23.097-33.869V357.715H287.656z" fill="#231F20" p-id="4573"></path><path d="M287.656 329.684v439.863c0 14.809 9.119 28.188 23.06 33.869a38.248 38.248 0 0 0 14.314 2.786c9.717 0 19.285-3.739 26.423-10.74L511.9 638.101l160.446 157.361c7.138 7.001 16.706 10.74 26.423 10.74 4.821 0 9.68-0.916 14.277-2.786 13.978-5.682 23.097-19.061 23.097-33.869V329.684H287.656z" fill="#F5CF87" p-id="4574"></path><path d="M736.143 357.715v-28.03c0-15.473-16.744-28.03-37.374-28.03H325.03c-20.63 0-37.374 12.558-37.374 28.03v28.03h448.487z" fill="#231F20" p-id="4575"></path><path d="M736.143 329.684v-70.076c0-15.473-16.744-28.03-37.374-28.03H325.03c-20.63 0-37.374 12.558-37.374 28.03v70.076h448.487z" fill="#E0995E" p-id="4576"></path></svg>