<?xml version="1.0" standalone="no"?><!DOCTYPE svg PUBLIC "-//W3C//DTD SVG 1.1//EN" "http://www.w3.org/Graphics/SVG/1.1/DTD/svg11.dtd"><svg t="1517586255876" class="icon" style="" viewBox="0 0 1024 1024" version="1.1" xmlns="http://www.w3.org/2000/svg" p-id="1635" xmlns:xlink="http://www.w3.org/1999/xlink" width="200" height="200"><defs><style type="text/css"></style></defs><path d="M512 256C326.4 256 160.8 344 55.2 480c-14.4 18.4-14.4 44.8 0 63.2C160.8 680 326.4 768 512 768s351.2-88 456.8-224c14.4-18.4 14.4-44.8 0-63.2C863.2 344 697.6 256 512 256z" fill="#FFFFFF" p-id="1636"></path><path d="M512 512m-241.6 0a241.6 241.6 0 1 0 483.2 0 241.6 241.6 0 1 0-483.2 0Z" fill="#99D9E6" p-id="1637"></path><path d="M512 512m-116 0a116 116 0 1 0 232 0 116 116 0 1 0-232 0Z" fill="#938993" p-id="1638"></path><path d="M512 636c-68 0-124-55.2-124-124s56-124 124-124 124 56 124 124-56 124-124 124z m0-232c-59.2 0-108 48-108 108s48 108 108 108 108-48 108-108S571.2 404 512 404z" fill="#6A576D" p-id="1639"></path><path d="M32 512c43.2 64 98.4 118.4 162.4 160.8 39.2-111.2 128-296.8 311.2-416C308.8 258.4 134.4 359.2 32 512z" fill="#FFFFFF" p-id="1640"></path><path d="M512 256C312 256 136 357.6 32 512c0 0 469.6-220.8 960 0-104-154.4-280-256-480-256z" fill="#FFFFFF" p-id="1641"></path><path d="M512 761.6c-137.6 0-249.6-112-249.6-249.6s112-249.6 249.6-249.6 249.6 112 249.6 249.6-112 249.6-249.6 249.6z m0-483.2c-128.8 0-233.6 104.8-233.6 233.6S383.2 745.6 512 745.6 745.6 640.8 745.6 512 640.8 278.4 512 278.4z" fill="#6A576D" p-id="1642"></path><path d="M512 636c-68 0-124-55.2-124-124s56-124 124-124 124 56 124 124-56 124-124 124z m0-232c-59.2 0-108 48-108 108s48 108 108 108 108-48 108-108S571.2 404 512 404z" fill="#6A576D" p-id="1643"></path><path d="M512 776c-4.8 0-8-3.2-8-8s3.2-8 8-8c177.6 0 341.6-80.8 451.2-220.8 12-16 12-37.6 0-53.6C853.6 344.8 689.6 264 512 264c-4.8 0-8-3.2-8-8s3.2-8 8-8c182.4 0 351.2 83.2 463.2 227.2 16.8 21.6 16.8 51.2 0 72.8C863.2 692.8 694.4 776 512 776z" fill="#6A576D" p-id="1644"></path><path d="M512 776C329.6 776 160.8 692.8 48.8 548.8a58.88 58.88 0 0 1 0-72.8C160.8 331.2 329.6 248 512 248c4.8 0 8 3.2 8 8s-3.2 8-8 8C334.4 264 170.4 344.8 60.8 485.6c-12 16-12 37.6 0 53.6C170.4 679.2 334.4 760 512 760c4.8 0 8 3.2 8 8s-3.2 8-8 8z" fill="#6A576D" p-id="1645"></path></svg>